<svg width="168" height="43" viewBox="0 0 168 43" fill="none" xmlns="http://www.w3.org/2000/svg">
<path d="M0 0.142859H4.28571V4.42857H0V0.142859ZM4.28571 0.142859H8.57143V4.42857H4.28571V0.142859ZM4.28571 4.42857H8.57143V8.71429H4.28571V4.42857ZM4.28571 8.71429H8.57143V13H4.28571V8.71429ZM4.28571 13H8.57143V17.2857H4.28571V13ZM0 13H4.28571V17.2857H0V13ZM0 8.71429H4.28571V13H0V8.71429ZM0 4.42857H4.28571V8.71429H0V4.42857ZM0 17.2857H4.28571V21.5714H0V17.2857ZM0 21.5714H4.28571V25.8571H0V21.5714ZM0 25.8571H4.28571V30.1429H0V25.8571ZM4.28571 21.5714H8.57143V25.8571H4.28571V21.5714ZM4.28571 17.2857H8.57143V21.5714H4.28571V17.2857ZM4.28571 25.8571H8.57143V30.1429H4.28571V25.8571ZM4.28571 30.1429H8.57143V34.4286H4.28571V30.1429ZM0 34.4286H4.28571V38.7143H0V34.4286ZM0 30.1429H4.28571V34.4286H0V30.1429ZM0 38.7143H4.28571V43H0V38.7143ZM4.28571 38.7143H8.57143V43H4.28571V38.7143ZM4.28571 34.4286H8.57143V38.7143H4.28571V34.4286ZM8.57143 0.142859H12.8571V4.42857H8.57143V0.142859ZM12.8571 0.142859H17.1429V4.42857H12.8571V0.142859ZM17.1429 0.142859H21.4286V4.42857H17.1429V0.142859ZM21.4286 0.142859H25.7143V4.42857H21.4286V0.142859ZM17.1429 4.42857H21.4286V8.71429H17.1429V4.42857ZM12.8571 4.42857H17.1429V8.71429H12.8571V4.42857ZM8.57143 4.42857H12.8571V8.71429H8.57143V4.42857ZM8.57143 21.5714H12.8571V25.8571H8.57143V21.5714ZM12.8571 17.2857H17.1429V21.5714H12.8571V17.2857ZM8.57143 17.2857H12.8571V21.5714H8.57143V17.2857ZM12.8571 21.5714H17.1429V25.8571H12.8571V21.5714ZM21.4286 4.42857H25.7143V8.71429H21.4286V4.42857ZM17.1429 17.2857H21.4286V21.5714H17.1429V17.2857ZM17.1429 21.5714H21.4286V25.8571H17.1429V21.5714ZM38.5714 8.71429H42.8571V13H38.5714V8.71429ZM34.2857 8.71429H38.5714V13H34.2857V8.71429ZM34.2857 13H38.5714V17.2857H34.2857V13ZM38.5714 13H42.8571V17.2857H38.5714V13ZM42.8571 8.71429H47.1429V13H42.8571V8.71429ZM47.1429 8.71429H51.4286V13H47.1429V8.71429ZM51.4286 8.71429H55.7143V13H51.4286V8.71429ZM51.4286 13H55.7143V17.2857H51.4286V13ZM47.1429 13H51.4286V17.2857H47.1429V13ZM55.7143 13H60V17.2857H55.7143V13ZM55.7143 17.2857H60V21.5714H55.7143V17.2857ZM55.7143 34.4286H60V38.7143H55.7143V34.4286ZM51.4286 34.4286H55.7143V38.7143H51.4286V34.4286ZM51.4286 17.2857H55.7143V21.5714H51.4286V17.2857ZM47.1429 34.4286H51.4286V38.7143H47.1429V34.4286ZM51.4286 38.7143H55.7143V43H51.4286V38.7143ZM47.1429 38.7143H51.4286V43H47.1429V38.7143ZM42.8571 38.7143H47.1429V43H42.8571V38.7143ZM38.5714 38.7143H42.8571V43H38.5714V38.7143ZM34.2857 38.7143H38.5714V43H34.2857V38.7143ZM34.2857 34.4286H38.5714V38.7143H34.2857V34.4286ZM38.5714 34.4286H42.8571V38.7143H38.5714V34.4286ZM34.2857 30.1429H38.5714V34.4286H34.2857V30.1429ZM30 34.4286H34.2857V38.7143H30V34.4286ZM30 30.1429H34.2857V34.4286H30V30.1429ZM30 25.8571H34.2857V30.1429H30V25.8571ZM30 21.5714H34.2857V25.8571H30V21.5714ZM30 17.2857H34.2857V21.5714H30V17.2857ZM30 13H34.2857V17.2857H30V13ZM34.2857 17.2857H38.5714V21.5714H34.2857V17.2857ZM34.2857 21.5714H38.5714V25.8571H34.2857V21.5714ZM34.2857 25.8571H38.5714V30.1429H34.2857V25.8571ZM42.8571 34.4286H47.1429V38.7143H42.8571V34.4286ZM42.8571 13H47.1429V17.2857H42.8571V13ZM51.4286 21.5714H55.7143V25.8571H51.4286V21.5714ZM55.7143 21.5714H60V25.8571H55.7143V21.5714ZM38.5714 25.8571H42.8571V30.1429H38.5714V25.8571ZM42.8571 25.8571H47.1429V30.1429H42.8571V25.8571ZM47.1429 25.8571H51.4286V30.1429H47.1429V25.8571ZM51.4286 25.8571H55.7143V30.1429H51.4286V25.8571ZM55.7143 25.8571H60V30.1429H55.7143V25.8571ZM47.1429 21.5714H51.4286V25.8571H47.1429V21.5714ZM42.8571 21.5714H47.1429V25.8571H42.8571V21.5714ZM38.5714 21.5714H42.8571V25.8571H38.5714V21.5714ZM64.2969 13H68.5826V17.2857H64.2969V13ZM64.2969 8.71429H68.5826V13H64.2969V8.71429ZM68.5826 8.71429H72.8683V13H68.5826V8.71429ZM68.5826 13H72.8683V17.2857H68.5826V13ZM68.5826 17.2857H72.8683V21.5714H68.5826V17.2857ZM68.5826 21.5714H72.8683V25.8571H68.5826V21.5714ZM68.5826 25.8571H72.8683V30.1429H68.5826V25.8571ZM64.2969 25.8571H68.5826V30.1429H64.2969V25.8571ZM64.2969 21.5714H68.5826V25.8571H64.2969V21.5714ZM64.2969 17.2857H68.5826V21.5714H64.2969V17.2857ZM64.2969 30.1429H68.5826V34.4286H64.2969V30.1429ZM68.5826 30.1429H72.8683V34.4286H68.5826V30.1429ZM68.5826 34.4286H72.8683V38.7143H68.5826V34.4286ZM68.5826 38.7143H72.8683V43H68.5826V38.7143ZM64.2969 38.7143H68.5826V43H64.2969V38.7143ZM64.2969 34.4286H68.5826V38.7143H64.2969V34.4286ZM72.8683 13H77.154V17.2857H72.8683V13ZM77.154 13H81.4397V17.2857H77.154V13ZM81.4397 13H85.7254V17.2857H81.4397V13ZM81.4397 8.71429H85.7254V13H81.4397V8.71429ZM77.154 8.71429H81.4397V13H77.154V8.71429ZM72.8683 17.2857H77.154V21.5714H72.8683V17.2857ZM85.7254 13H90.0112V17.2857H85.7254V13ZM81.4397 17.2857H85.7254V21.5714H81.4397V17.2857ZM94.2969 13H98.5826V17.2857H94.2969V13ZM94.2969 8.71429H98.5826V13H94.2969V8.71429ZM98.5826 8.71429H102.868V13H98.5826V8.71429ZM98.5826 13H102.868V17.2857H98.5826V13ZM98.5826 17.2857H102.868V21.5714H98.5826V17.2857ZM98.5826 21.5714H102.868V25.8571H98.5826V21.5714ZM98.5826 25.8571H102.868V30.1429H98.5826V25.8571ZM94.2969 25.8571H98.5826V30.1429H94.2969V25.8571ZM94.2969 21.5714H98.5826V25.8571H94.2969V21.5714ZM94.2969 17.2857H98.5826V21.5714H94.2969V17.2857ZM94.2969 30.1429H98.5826V34.4286H94.2969V30.1429ZM98.5826 30.1429H102.868V34.4286H98.5826V30.1429ZM98.5826 34.4286H102.868V38.7143H98.5826V34.4286ZM98.5826 38.7143H102.868V43H98.5826V38.7143ZM94.2969 38.7143H98.5826V43H94.2969V38.7143ZM94.2969 34.4286H98.5826V38.7143H94.2969V34.4286ZM102.868 13H107.154V17.2857H102.868V13ZM107.154 13H111.44V17.2857H107.154V13ZM111.44 13H115.725V17.2857H111.44V13ZM111.44 8.71429H115.725V13H111.44V8.71429ZM107.154 8.71429H111.44V13H107.154V8.71429ZM102.868 17.2857H107.154V21.5714H102.868V17.2857ZM115.725 13H120.011V17.2857H115.725V13ZM111.44 17.2857H115.725V21.5714H111.44V17.2857ZM124.297 0.142859H132.868V8.71429H124.297V0.142859ZM124.297 13H132.868V43H124.297V13ZM137.188 34.4286H141.473V38.7143H137.188V34.4286ZM137.188 30.1429H141.473V34.4286H137.188V30.1429ZM141.473 30.1429H145.759V34.4286H141.473V30.1429ZM141.473 34.4286H145.759V38.7143H141.473V34.4286ZM141.473 25.8571H145.759V30.1429H141.473V25.8571ZM145.759 25.8571H150.045V30.1429H145.759V25.8571ZM154.33 25.8571H158.616V30.1429H154.33V25.8571ZM158.616 25.8571H162.902V30.1429H158.616V25.8571ZM158.616 34.4286H162.902V38.7143H158.616V34.4286ZM162.902 34.4286H167.188V38.7143H162.902V34.4286ZM162.902 30.1429H167.188V34.4286H162.902V30.1429ZM145.759 21.5714H150.045V25.8571H145.759V21.5714ZM150.045 21.5714H154.33V25.8571H150.045V21.5714ZM154.33 21.5714H158.616V25.8571H154.33V21.5714ZM154.33 17.2857H158.616V21.5714H154.33V17.2857ZM158.616 17.2857H162.902V21.5714H158.616V17.2857ZM158.616 13H162.902V17.2857H158.616V13ZM158.616 8.71429H162.902V13H158.616V8.71429ZM162.902 8.71429H167.188V13H162.902V8.71429ZM162.902 13H167.188V17.2857H162.902V13ZM145.759 17.2857H150.045V21.5714H145.759V17.2857ZM141.473 17.2857H145.759V21.5714H141.473V17.2857ZM141.473 13H145.759V17.2857H141.473V13ZM141.473 8.71429H145.759V13H141.473V8.71429ZM137.188 8.71429H141.473V13H137.188V8.71429ZM137.188 13H141.473V17.2857H137.188V13ZM145.759 30.1429H150.045V34.4286H145.759V30.1429ZM154.33 30.1429H158.616V34.4286H154.33V30.1429ZM158.616 30.1429H162.902V34.4286H158.616V30.1429ZM145.759 13H150.045V17.2857H145.759V13ZM154.33 13H158.616V17.2857H154.33V13ZM150.045 17.2857H154.33V21.5714H150.045V17.2857ZM150.045 25.8571H154.33V30.1429H150.045V25.8571ZM137.188 38.7143H141.473V43H137.188V38.7143ZM141.473 38.7143H145.759V43H141.473V38.7143ZM158.616 38.7143H162.902V43H158.616V38.7143ZM162.902 38.7143H167.188V43H162.902V38.7143Z" fill="black"/>
</svg>
